<svg width="61" height="61" viewBox="0 0 61 61" fill="none" xmlns="http://www.w3.org/2000/svg">
<path d="M17.7917 35.5833V27.7295C15.9617 26.8908 14.2588 25.8741 12.7083 24.6795V35.5833H17.7917ZM12.7083 45.75H7.62501V40.6666H2.54167V35.5833H7.62501V17.7916H12.7083V21.4262C17.2833 25.4166 23.5613 27.9583 30.5 27.9583C37.4388 27.9583 43.7167 25.4166 48.2917 21.4262V17.7916H53.375V35.5833H58.4583V40.6666H53.375V45.75H48.2917V40.6666H12.7083V45.75ZM43.2083 27.7295V35.5833H48.2917V24.6795C46.7413 25.8741 45.0383 26.8908 43.2083 27.7295ZM40.6667 35.5833V28.7716C39.04 29.3562 37.3371 29.7883 35.5833 30.0933V35.5833H40.6667ZM33.0417 35.5833V30.3983L30.5 30.5L27.9583 30.3983V35.5833H33.0417ZM25.4167 35.5833V30.0933C23.6629 29.7883 21.96 29.3562 20.3333 28.7716V35.5833H25.4167Z" fill="white"/>
</svg>
