<svg width="49" height="49" viewBox="0 0 49 49" fill="none" xmlns="http://www.w3.org/2000/svg">
<path d="M25.5486 5.41939C25.2593 5.16228 24.8858 5.02026 24.4988 5.02026C24.1118 5.02026 23.7382 5.16228 23.4489 5.41939C21.9437 6.7532 20.7433 8.39536 19.9291 10.2343C19.1148 12.0733 18.706 14.0659 18.7302 16.0769C18.7326 16.2876 18.7894 16.4942 18.895 16.6766C19.0005 16.859 19.1514 17.0111 19.3329 17.1181C20.9206 18.057 22.3556 19.2327 23.5886 20.6045C23.7035 20.732 23.8438 20.834 24.0006 20.9038C24.1574 20.9735 24.3271 21.0096 24.4988 21.0096C24.6704 21.0096 24.8401 20.9735 24.9969 20.9038C25.1537 20.834 25.2941 20.732 25.4089 20.6045C26.6422 19.2344 28.0773 18.0604 29.6646 17.123C29.8457 17.0157 29.996 16.8635 30.1012 16.6811C30.2063 16.4987 30.2627 16.2923 30.2648 16.0818C30.2897 14.0706 29.8814 12.0776 29.0676 10.2382C28.2539 8.3988 27.0536 6.75615 25.5486 5.42184M7.38919 29.912C7.37004 29.6986 7.39332 29.4834 7.4577 29.279C7.52208 29.0746 7.62628 28.8849 7.76429 28.7209C7.9023 28.557 8.0714 28.4219 8.26183 28.3236C8.45227 28.2253 8.66028 28.1656 8.87389 28.148C12.1358 27.8751 15.4009 28.6363 18.2057 30.3237C21.0106 32.0112 23.2129 34.539 24.5 37.5487C25.7866 34.539 27.9883 32.0109 30.7927 30.3231C33.5971 28.6352 36.8618 27.8734 40.1236 28.1456C41.0203 28.2191 41.6916 29.008 41.6083 29.9096C41.255 33.7872 39.465 37.3926 36.5898 40.0182C33.7145 42.6437 29.9616 44.0995 26.068 44.1H24.9287C24.7831 44.0988 24.6382 44.079 24.4975 44.0412C24.3561 44.0792 24.2104 44.099 24.0639 44.1H22.9246C19.0314 44.0989 15.2792 42.6428 12.4044 40.0173C9.52965 37.3919 7.74 33.7868 7.38674 29.9096M24.5 26.5237C23.2133 23.5136 21.0112 20.9852 18.2063 19.2973C15.4014 17.6094 12.1361 16.8478 8.87389 17.1206C8.66028 17.1382 8.45227 17.1978 8.26183 17.2962C8.0714 17.3945 7.9023 17.5295 7.76429 17.6935C7.62628 17.8575 7.52208 18.0471 7.4577 18.2516C7.39332 18.456 7.37004 18.6711 7.38919 18.8846C7.58232 21.0342 8.2206 23.12 9.26344 25.0096C9.36864 25.1998 9.52258 25.3586 9.70944 25.4697C9.8963 25.5808 10.1094 25.6401 10.3267 25.6417C12.8042 25.6634 15.2507 26.1954 17.5134 27.2045C19.7762 28.2137 21.8067 29.6783 23.4783 31.507C23.6066 31.647 23.7656 31.7554 23.943 31.8234C24.1203 31.8914 24.311 31.9173 24.5 31.899C24.6886 31.9169 24.8788 31.8909 25.0557 31.8228C25.2325 31.7548 25.3912 31.6467 25.5192 31.507C27.1908 29.6783 29.2213 28.2137 31.4841 27.2045C33.7468 26.1954 36.1933 25.6634 38.6708 25.6417C38.8884 25.6399 39.1016 25.5802 39.2885 25.4687C39.4754 25.3571 39.6292 25.1978 39.7341 25.0071C40.7766 23.1183 41.4149 21.0333 41.6083 18.8846C41.6275 18.6711 41.6042 18.456 41.5398 18.2516C41.4754 18.0471 41.3712 17.8575 41.2332 17.6935C41.0952 17.5295 40.9261 17.3945 40.7357 17.2962C40.5453 17.1978 40.3372 17.1382 40.1236 17.1206C36.8618 16.8484 33.5971 17.6102 30.7927 19.2981C27.9883 20.9859 25.7866 23.514 24.5 26.5237Z" fill="white"/>
</svg>
