<svg width="46" height="46" viewBox="0 0 46 46" fill="none" xmlns="http://www.w3.org/2000/svg">
<path d="M34.5 35.4583C33.7375 35.4583 33.0063 35.1554 32.4671 34.6162C31.9279 34.0771 31.625 33.3458 31.625 32.5833C31.625 31.8208 31.9279 31.0895 32.4671 30.5504C33.0063 30.0112 33.7375 29.7083 34.5 29.7083C35.2625 29.7083 35.9938 30.0112 36.533 30.5504C37.0721 31.0895 37.375 31.8208 37.375 32.5833C37.375 33.3458 37.0721 34.0771 36.533 34.6162C35.9938 35.1554 35.2625 35.4583 34.5 35.4583ZM37.375 18.2083L41.1317 23H32.5834V18.2083M11.5 35.4583C10.7375 35.4583 10.0063 35.1554 9.46709 34.6162C8.92792 34.0771 8.62502 33.3458 8.62502 32.5833C8.62502 31.8208 8.92792 31.0895 9.46709 30.5504C10.0063 30.0112 10.7375 29.7083 11.5 29.7083C12.2625 29.7083 12.9938 30.0112 13.533 30.5504C14.0721 31.0895 14.375 31.8208 14.375 32.5833C14.375 33.3458 14.0721 34.0771 13.533 34.6162C12.9938 35.1554 12.2625 35.4583 11.5 35.4583ZM38.3334 15.3333H32.5834V7.66663H5.75002C3.62252 7.66663 1.91669 9.37246 1.91669 11.5V32.5833H5.75002C5.75002 34.1083 6.35582 35.5708 7.43416 36.6492C8.51249 37.7275 9.97503 38.3333 11.5 38.3333C13.025 38.3333 14.4876 37.7275 15.5659 36.6492C16.6442 35.5708 17.25 34.1083 17.25 32.5833H28.75C28.75 34.1083 29.3558 35.5708 30.4342 36.6492C31.5125 37.7275 32.975 38.3333 34.5 38.3333C36.025 38.3333 37.4876 37.7275 38.5659 36.6492C39.6442 35.5708 40.25 34.1083 40.25 32.5833H44.0834V23L38.3334 15.3333Z" fill="white"/>
</svg>
